<svg id="Layer_1" height="512" viewBox="0 0 256 256" width="512" xmlns="http://www.w3.org/2000/svg"><g><g><g><g><g><path d="m90.319 21.383c12.055 0 23.152 4.075 32.012 10.91.315-1.095.488-2.258.488-3.502 0-11.714-14.551-25.699-32.5-25.699s-32.5 13.985-32.5 25.699c0 1.244.173 2.407.488 3.502 8.86-6.835 19.957-10.91 32.012-10.91z" fill="#58595b"/></g></g><g><g><path d="m90.319 21.383c12.055 0 23.152 4.075 32.012 10.91.315-1.095.488-2.258.488-3.502 0-.382-.017-.766-.048-1.152-.906-11.459-15.087-24.547-32.452-24.547-.842 0-1.674.041-2.5.1 11.449.83 21.238 7.248 26.303 14.788 1.12 1.667-.647 3.755-2.48 2.936-6.514-2.91-13.726-4.533-21.322-4.533-12.256 0-23.521 4.214-32.452 11.256-.031.386-.048.77-.048 1.152 0 1.244.173 2.407.488 3.502 8.859-6.835 19.956-10.91 32.011-10.91z" fill="#414042"/></g></g><g><g><path d="m119.577 125.087h-58.516c-12.819 0-23.212-10.392-23.212-23.212v-28.023c0-28.978 23.491-52.469 52.469-52.469 28.978 0 52.469 23.491 52.469 52.469v28.023c.002 12.82-10.391 23.212-23.21 23.212z" fill="#f1f2f2"/></g></g><g><g><path d="m119.577 125.087h-58.516c-12.819 0-23.212-10.392-23.212-23.212v-28.023c0-28.978 23.491-52.469 52.469-52.469 28.978 0 52.469 23.491 52.469 52.469v28.023c.002 12.82-10.391 23.212-23.21 23.212z" fill="#58595b"/></g></g><g><g><path d="m90.319 21.383c-.839 0-1.671.024-2.5.063 27.817 1.305 49.969 24.266 49.969 52.406v28.023c0 12.819-10.392 23.211-23.212 23.211h5c12.819 0 23.212-10.392 23.212-23.211v-28.023c.001-28.978-23.491-52.469-52.469-52.469z" fill="#414042"/></g></g><g><g><g><g><path d="m136.319 78.248v17.592c0 3.325-.361 6.564-1.031 9.689.342.026.683.052 1.031.052 7.548 0 13.667-6.119 13.667-13.667 0-7.547-6.119-13.666-13.667-13.666z" fill="#ffd2c0"/></g></g><g><g><path d="m144.928 81.306c1.91 2.35 3.058 5.345 3.058 8.609 0 7.092-5.402 12.92-12.316 13.598-.113.674-.238 1.345-.38 2.009.342.026.681.059 1.029.059 7.548 0 13.667-6.119 13.667-13.667 0-4.283-1.974-8.103-5.058-10.608z" fill="#fcc4ae"/></g></g><g><g><path d="m136.319 84.914v10.926c0 1.032-.046 2.053-.113 3.069.038.001.075.006.113.006 3.866 0 7-3.134 7-7 0-3.867-3.134-7.001-7-7.001z" fill="#f2ad97"/></g></g></g><g><g><g><path d="m44.319 95.84v-17.592c-7.548 0-13.667 6.119-13.667 13.667s6.119 13.667 13.667 13.667c.348 0 .69-.026 1.031-.052-.67-3.126-1.031-6.365-1.031-9.69z" fill="#ffd2c0"/></g></g><g><g><path d="m44.319 95.84v-10.926c-3.866 0-7 3.134-7 7s3.134 7 7 7c.038 0 .075-.005.113-.006-.067-1.015-.113-2.036-.113-3.068z" fill="#f2ad97"/></g></g></g></g><g><g><g><path d="m165.231 252.908h-149.824c-5.523 0-10-4.477-10-10v-35.994c0-27.614 22.386-50 50-50h69.824c27.614 0 50 22.386 50 50v35.994c0 5.523-4.477 10-10 10z" fill="#ffa91a"/></g></g><g><g><path d="m155.232 166.914c6.278 8.357 10 18.743 10 30v35.994c0 5.523-4.477 10-10 10h-149.825c0 5.523 4.477 10 10 10h149.824c5.523 0 10-4.477 10-10v-35.994c0-16.357-7.856-30.878-19.999-40z" fill="#f79219"/></g></g><g><g><path d="m157.989 169.157c7.62 8.775 12.243 20.223 12.243 32.757v35.994c0 5.523-4.477 10-10 10h-149.825c-1.466 0-2.855-.323-4.11-.89 1.569 3.471 5.053 5.89 9.11 5.89h149.824c5.523 0 10-4.477 10-10v-35.994c0-15.079-6.685-28.589-17.242-37.757z" fill="#ef7816"/></g></g><g><g><path d="m11.407 227.133c-1.104 0-2-.896-2-2v-18.218c0-11.965 4.588-23.307 12.92-31.935.769-.794 2.033-.816 2.828-.05.794.768.816 2.034.049 2.828-7.607 7.878-11.797 18.233-11.797 29.156v18.218c0 1.105-.895 2.001-2 2.001z" fill="#ffc91d"/></g></g><circle cx="29.826" cy="170.632" fill="#ffc91d" r="1.966"/><g><g><path d="m134.672 222.817 7.306-6.679c2.072-1.894 3.253-4.573 3.253-7.381v-11.843c0-27.614-22.386-50-50-50h-9.824c-27.614 0-50 22.386-50 50v11.843c0 2.808 1.18 5.486 3.253 7.381l7.306 6.679-9.114 13.027c-.941 1.344-1.445 2.945-1.445 4.586v12.479h109.824v-12.479c0-1.641-.504-3.242-1.445-4.586z" fill="#ef7816"/></g></g><g><g><path d="m61.153 192.908h58.333v60h-58.333z" fill="#995222"/></g></g><g><g><path d="m119.486 192.908h-58.333v-22.994c0-7.18 5.82-13 13-13h32.333c7.18 0 13 5.82 13 13z" fill="#ffd2c0"/></g></g></g><g><g><path d="m106.486 156.914v-18.004c-5.031 1.889-10.476 2.929-16.167 2.929-5.69 0-11.136-1.04-16.167-2.929v18.004z" fill="#ffd2c0"/></g></g><g><g><path d="m90.319 141.84c-5.691 0-11.136-1.04-16.167-2.929v5c5.03 1.889 10.476 2.929 16.167 2.929 5.69 0 11.136-1.04 16.167-2.929v-5c-5.031 1.889-10.476 2.929-16.167 2.929z" fill="#f2ad97"/></g></g><g><g><g><path d="m90.319 141.84c-25.405 0-46-20.595-46-46v-23.467c0-4.743 3.326-8.83 7.97-9.79 6.412-1.326 15.455-3.784 22.336-7.993 5.784-3.538 9.652-6.978 12.1-9.582 2.003-2.13 5.388-2.078 7.342.097 2.017 2.246 4.942 5.217 8.993 8.722 5.798 5.016 17.082 7.681 24.888 8.988 4.828.808 8.371 4.97 8.371 9.866v23.159c0 25.405-20.595 46-46 46z" fill="#ffd2c0"/></g></g></g><g><g><g><path d="m130.429 63.571c.57 1.259.89 2.65.89 4.109v23.16c0 25.405-20.595 46-46 46-11.43 0-21.877-4.178-29.922-11.078 8.437 9.837 20.947 16.078 34.922 16.078 25.405 0 46-20.595 46-46v-23.159c0-4.01-2.378-7.523-5.89-9.11z" fill="#fcc4ae"/></g></g></g><g><g><circle cx="110.319" cy="86.206" fill="#995222" r="5.292"/></g></g><path d="m136.319 73.795-11.568 5.652c-2.575-5.394-8.068-9.139-14.432-9.139-7.964 0-14.569 5.856-15.782 13.484-2.792-.566-5.644-.566-8.436 0-1.213-7.628-7.818-13.484-15.782-13.484-6.372 0-11.871 3.754-14.442 9.159l-11.558-5.647v4.452l10.293 5.028c-.187.975-.293 1.979-.293 3.008 0 8.822 7.178 16 16 16 8.304 0 15.147-6.361 15.922-14.466 2.69-.652 5.465-.652 8.155 0 .775 8.105 7.618 14.466 15.922 14.466 8.822 0 16-7.178 16-16 0-1.037-.107-2.048-.297-3.031l10.297-5.031v-4.451zm-66 24.513c-6.617 0-12-5.383-12-12s5.383-12 12-12 12 5.383 12 12-5.382 12-12 12zm40 0c-6.617 0-12-5.383-12-12s5.383-12 12-12 12 5.383 12 12-5.382 12-12 12z" fill="#414042"/><g><g><circle cx="70.319" cy="86.206" fill="#995222" r="5.292"/></g></g><g><g><path d="m90.319 119.331c6.259 0 11.333-3.026 11.333-6.76h-22.666c0 3.734 5.074 6.76 11.333 6.76z" fill="#995222"/></g></g></g></g><g><g><g><g><path d="m248.593 237.85h-114.434c-1.105 0-2 .895-2 2v11.059c0 1.105.895 2 2 2h114.434c1.105 0 2-.895 2-2v-11.059c0-1.105-.895-2-2-2z" fill="#7c3108"/></g></g><g><g><path d="m248.593 237.85h-3v8.059c0 1.105-.895 2-2 2h-111.434v3c0 1.105.896 2 2 2h114.434c1.105 0 2-.895 2-2v-11.059c0-1.105-.895-2-2-2z" fill="#6d2e03"/></g></g><g><g><g><g><path d="m144.343 237.85h7.245v15.059h-7.245z" fill="#e59076"/></g></g><g><g><path d="m157.516 237.85h7.245v15.059h-7.245z" fill="#e59076"/></g></g></g><g><g><g><path d="m217.99 237.85h7.245v15.059h-7.245z" fill="#e59076"/></g></g><g><g><path d="m231.163 237.85h7.245v15.059h-7.245z" fill="#e59076"/></g></g></g></g></g><g><g><g><path d="m249.276 172.425h-100.651c-9.215 0-16.685 7.47-16.685 16.685 0 9.215 7.47 16.685 16.685 16.685h100.651c.728 0 1.317-.59 1.317-1.317v-30.736c0-.727-.59-1.317-1.317-1.317z" fill="#e63950"/></g></g><g><g><path d="m249.276 172.425h-3.683v27.054c0 .727-.59 1.317-1.317 1.317h-100.651c-3.327 0-6.42-.985-9.022-2.663 2.97 4.606 8.134 7.663 14.022 7.663h100.651c.728 0 1.317-.59 1.317-1.317v-30.736c0-.728-.59-1.318-1.317-1.318z" fill="#d10028"/></g></g><g><g><path d="m250.593 179.012h-101.968c-5.578 0-10.099 4.522-10.099 10.099 0 5.578 4.522 10.099 10.099 10.099h101.968z" fill="#f1f2f2"/></g></g><g><g><g><path d="m250.593 184.5v-2.635h-108.995c-.786.763-1.445 1.652-1.951 2.635z" fill="#e6e7e8"/></g></g><g><g><path d="m250.593 187.793h-111.972c-.056.432-.096.87-.096 1.317 0 .448.039.885.096 1.317h111.972z" fill="#e6e7e8"/></g></g><g><g><path d="m250.593 193.721h-110.947c.506.983 1.165 1.872 1.951 2.635h108.995v-2.635z" fill="#e6e7e8"/></g></g></g></g><g><g><g><g><path d="m133.256 205.796h104.164c7.275 0 13.173 5.898 13.173 13.173v5.708c0 7.275-5.898 13.173-13.173 13.173h-104.164c-.728 0-1.317-.59-1.317-1.317v-29.419c0-.728.59-1.318 1.317-1.318z" fill="#648940"/></g></g><g><g><path d="m243.888 207.501c1.081 1.912 1.705 4.115 1.705 6.468v5.708c0 7.275-5.898 13.173-13.173 13.173h-100.481v3.683c0 .727.59 1.317 1.317 1.317h104.164c7.275 0 13.173-5.898 13.173-13.173v-5.708c0-4.923-2.705-9.207-6.705-11.468z" fill="#5a7a39"/></g></g><g><g><path d="m131.939 212.382h105.481c3.638 0 6.586 2.949 6.586 6.586v5.708c0 3.638-2.949 6.586-6.586 6.586h-105.481z" fill="#f1f2f2"/></g></g></g><g><g><g><path d="m131.939 219.518h112.068v-.549c0-.73-.124-1.43-.343-2.086h-111.725z" fill="#e6e7e8"/></g></g><g><g><path d="m131.939 224.128v2.635h111.725c.219-.656.343-1.356.343-2.086v-.549z" fill="#e6e7e8"/></g></g></g></g></g><g><path d="m199.093 148.849c-1.345 0-2.685-.057-4.018-.161l-2.579 13.112h13.193l-2.581-13.122c-1.326.102-2.662.171-4.015.171z" fill="#939598"/><path d="m201.523 148.787 1.697 8.626c.243 1.236-.703 2.386-1.962 2.386h-8.368l-.393 2h13.193l-2.581-13.122c-.528.041-1.054.085-1.586.11z" fill="#808285"/><g><g><path d="m227.373 54.275 1.267-2.531c.618-1.234.118-2.736-1.116-3.354-1.236-.618-2.737-.118-3.354 1.117l-1.121 2.239c-2.662-1.391-5.47-2.573-8.416-3.504-1.316-.414-2.722.313-3.138 1.63s.313 2.721 1.63 3.138c2.692.851 5.256 1.934 7.685 3.21l-41.61 83.15c-1.774-.842-3.503-1.793-5.17-2.862-1.161-.745-2.708-.409-3.454.754-.745 1.162-.407 2.708.755 3.454 8.294 5.321 17.894 8.134 27.763 8.134 28.397 0 51.5-23.103 51.5-51.5-.001-17.752-8.942-33.744-23.221-43.075zm-28.28 89.574c-5.233 0-10.379-.882-15.254-2.578l41.28-82.49c12.606 8.468 20.475 22.744 20.475 38.568-.001 25.64-20.86 46.5-46.501 46.5z" fill="#58595b"/></g></g><g><g><g><path d="m217.689 172.425h-37.193v-5.625c0-2.761 2.239-5 5-5h27.193c2.761 0 5 2.239 5 5z" fill="#58595b"/></g></g></g><g><g><path d="m215.064 162.425c.386.709.625 1.51.625 2.375v3.625c0 1.105-.895 2-2 2h-33.193v2h37.193v-5.625c0-1.897-1.069-3.528-2.625-4.375z" fill="#414042"/></g></g><g><g><g><g><g><circle cx="199.093" cy="97.349" fill="#478cf7" r="43.55"/></g></g></g><g><g><g><circle cx="199.093" cy="97.349" fill="#478cf7" r="43.55"/></g></g></g><g><g><g><circle cx="199.093" cy="97.349" fill="#5e9cf7" r="43.55"/></g></g></g><g><g><path d="m227.279 64.164c6.459 7.597 10.364 17.433 10.364 28.186 0 24.052-19.498 43.549-43.55 43.549-10.753 0-20.588-3.905-28.186-10.364 7.988 9.396 19.887 15.364 33.186 15.364 24.052 0 43.55-19.498 43.55-43.549-.001-13.3-5.969-25.198-15.364-33.186z" fill="#478cf7"/></g></g><g><g><g><path d="m208.798 54.887c1.395 1.519 2.926 3.78.888 5.053-3.257 2.035-6.352 1.469-8.455 3.326-1.536 1.358-.753 3.87-2.944 5.63s-8.631 2.12-11.347 4.142c-2.907 2.165-5.629 6-3.336 9.675 1.708 2.737 6.84-.963 10.97-2.271 2.318-.734 6.61-1.566 9.63-.324 2.361.971 2.698 3.55 2.367 4.781-.729 2.709-4.497 5.396-8.741 4.308-4.41-1.131-9.214-2.738-13.223.095-6.911 4.884-5.296 11.108-2.809 16.021s7.886 4.729 9.72 7.174.588 11.971-.329 13.805c-.593 1.187-.573 3.371.257 5.054.479.973 2.485 2.026 3.567 2.116 1.215.101 4.203-.3 7.156-3.745 1.98-2.31 1.723-8.614 6.598-13.857 3.694-3.973 8.698-6.268 8.289-8.331-.948-4.784-4.76-4.141-6.067-6.557-.596-1.102 1.642-3.48 1.483-5.338-.189-2.215-2.023-2.849-2.878-3.969-.585-.765-1.469-3.328 3.198-5.076 1.866-.699 5.399-.766 7.065-2.19 2.502-2.138 2.954-5.676 4.484-5.744 2.726-.122 4.671 2.821 7.328 4.071 2.166 1.019 6.649.421 8.382-.213-4.99-13.786-16.743-24.334-31.253-27.636z" fill="#76a34f"/></g></g></g><g><g><g><path d="m234.986 92.235c-1.407.29-3.769 1.432-4.625 2.179s-1.923 3.667-2.594 4.743c-.671 1.075-1.939 1.453-2.443 2.443-.565 1.111-.619 2.091-.168 2.431s2.074.544 3.396.33 2.79-1.625 4.099-1.675c3.613-.139 5.386 2.211 6.623 2.583.715.214 1.884-.187 2.746-.564.407-2.391.621-4.847.621-7.354 0-1.655-.096-3.288-.275-4.895-2.096-.27-5.52-.603-7.38-.221z" fill="#76a34f"/></g></g></g><g><g><g><path d="m164.803 91.091c-.911-1.748-1.563-6.593 1.329-11.336 2.38-3.904 1.678-10.243 1.355-12.365-5.15 5.432-8.913 12.19-10.728 19.709 1.695 1.809 4.645 5.317 5.3 8.448.932 4.453-.909 5.299-.79 8.343s1.205 5.665 3.666 8.701c.871 1.074 2.894 2.917 4.04 5.086.47.889.079 3.096.581 4.041.739 1.391 2.342 1.338 2.698.879.598-.771-.117-2.725-.233-3.531s-.358-2.171-.195-3.262c.164-1.091 1.711-4.792 1.711-4.792s1.242-2.877 1.352-4.422c.11-1.546-1.622-7.114-3.866-9.622-2.245-2.509-5.309-4.128-6.22-5.877z" fill="#76a34f"/></g></g></g></g></g></g></g></svg>