<svg id="Layer_1" enable-background="new 0 0 468 468" height="512" viewBox="0 0 468 468" width="512" xmlns="http://www.w3.org/2000/svg" xmlns:xlink="http://www.w3.org/1999/xlink"><defs><path id="SVGID_1_" d="m248.887 467.584c-120.178 7.561-214.46-89.163-240.914-189.005-2.535-9.567-28.506-113.822 29.5-200.36 10.595-15.807 39.252-57.291 90.957-72.26 53.657-15.534 123.959-.148 140.124 39.759 11.362 28.052-10.049 53.351 1.639 65.002 20.069 20.005 83.117-54.659 133.568-37.695 48.421 16.282 72.895 112.816 61.458 187.263-15.229 99.127-100.409 200.002-216.332 207.296z"/><clipPath id="SVGID_2_"><use xlink:href="#SVGID_1_"/></clipPath></defs><g><g><use fill="#e6edff" xlink:href="#SVGID_1_"/><g clip-path="url(#SVGID_2_)"><g><path d="m.199 225.334 116.902-.8c77.922-.4 155.885-1.524 233.804-1 38.967.365 77.935.654 116.902 1.8.11.003.197.095.194.206-.003.106-.089.191-.194.194-38.967 1.146-77.935 1.435-116.902 1.8-77.919.524-155.882-.6-233.804-1l-116.902-.8c-.11-.001-.199-.091-.199-.201.001-.11.09-.198.199-.199z" fill="#fff"/></g><g><path d="m.199 236.057 116.902-.8c77.922-.4 155.885-1.524 233.804-1 38.967.365 77.935.654 116.902 1.8.11.003.197.095.194.206-.003.106-.089.191-.194.194-38.967 1.146-77.935 1.435-116.902 1.8-77.919.524-155.882-.6-233.804-1l-116.902-.8c-.11-.001-.199-.091-.199-.201.001-.11.09-.198.199-.199z" fill="#fff"/></g><g><path d="m.199 246.779 116.902-.8c77.922-.4 155.885-1.524 233.804-1 38.967.365 77.935.654 116.902 1.8.11.003.197.095.194.206-.003.106-.089.191-.194.194-38.967 1.146-77.935 1.435-116.902 1.8-77.919.524-155.882-.6-233.804-1l-116.902-.8c-.11-.001-.199-.091-.199-.201.001-.109.09-.198.199-.199z" fill="#fff"/></g><g><path d="m.199 257.502 116.902-.8c77.922-.4 155.885-1.524 233.804-1 38.967.365 77.935.654 116.902 1.8.11.003.197.095.194.206-.003.106-.089.191-.194.194-38.967 1.146-77.935 1.435-116.902 1.8-77.919.524-155.882-.6-233.804-1l-116.902-.8c-.11-.001-.199-.091-.199-.201.001-.11.09-.198.199-.199z" fill="#fff"/></g><g><path d="m.199 268.225 116.902-.8c77.922-.4 155.885-1.524 233.804-1 38.967.365 77.935.654 116.902 1.8.11.003.197.095.194.206-.003.106-.089.191-.194.194-38.967 1.146-77.935 1.435-116.902 1.8-77.919.524-155.882-.6-233.804-1l-116.902-.8c-.11-.001-.199-.091-.199-.201.001-.11.09-.198.199-.199z" fill="#fff"/></g><g><path d="m.199 278.948 116.902-.8c77.922-.4 155.885-1.524 233.804-1 38.967.365 77.935.654 116.902 1.8.11.003.197.095.194.206-.003.106-.089.191-.194.194-38.967 1.146-77.935 1.435-116.902 1.8-77.919.524-155.882-.6-233.804-1l-116.902-.8c-.11-.001-.199-.091-.199-.201.001-.11.09-.199.199-.199z" fill="#fff"/></g><g><path d="m.199 289.67 116.902-.8c77.922-.4 155.885-1.524 233.804-1 38.967.365 77.935.654 116.902 1.8.11.003.197.095.194.206-.003.106-.089.191-.194.194-38.967 1.146-77.935 1.435-116.902 1.8-77.919.524-155.882-.6-233.804-1l-116.902-.8c-.11-.001-.199-.091-.199-.201.001-.11.09-.198.199-.199z" fill="#fff"/></g><g><path d="m.199 300.393 116.902-.8c77.922-.4 155.885-1.524 233.804-1 38.967.365 77.935.654 116.902 1.8.11.003.197.095.194.206-.003.106-.089.191-.194.194-38.967 1.146-77.935 1.435-116.902 1.8-77.919.524-155.882-.6-233.804-1l-116.902-.8c-.11-.001-.199-.091-.199-.201.001-.11.09-.198.199-.199z" fill="#fff"/></g><g><path d="m.199 311.116 116.902-.8c77.922-.4 155.885-1.524 233.804-1 38.967.365 77.935.654 116.902 1.8.11.003.197.095.194.206-.003.106-.089.191-.194.194-38.967 1.146-77.935 1.435-116.902 1.8-77.919.524-155.882-.6-233.804-1l-116.902-.8c-.11-.001-.199-.091-.199-.201.001-.11.09-.199.199-.199z" fill="#fff"/></g><g><path d="m.199 321.838 116.902-.8c77.922-.4 155.885-1.524 233.804-1 38.967.365 77.935.654 116.902 1.8.11.003.197.095.194.206-.003.106-.089.191-.194.194-38.967 1.146-77.935 1.435-116.902 1.8-77.919.524-155.882-.6-233.804-1l-116.902-.8c-.11-.001-.199-.091-.199-.201.001-.11.09-.198.199-.199z" fill="#fff"/></g><g><path d="m.199 332.561 116.902-.8c77.922-.4 155.885-1.524 233.804-1 38.967.365 77.935.654 116.902 1.8.11.003.197.095.194.206-.003.106-.089.191-.194.194-38.967 1.146-77.935 1.435-116.902 1.8-77.919.524-155.882-.6-233.804-1l-116.902-.8c-.111-.001-.2-.091-.199-.201s.09-.198.199-.199z" fill="#fff"/></g><g><path d="m.199 343.284 116.902-.8c77.922-.4 155.885-1.524 233.804-1 38.967.365 77.935.654 116.902 1.8.11.003.197.095.194.206-.003.106-.089.191-.194.194-38.967 1.146-77.935 1.435-116.902 1.8-77.919.524-155.882-.6-233.804-1l-116.902-.8c-.11-.001-.199-.091-.199-.201.001-.11.09-.198.199-.199z" fill="#fff"/></g><g><path d="m.199 354.006 116.902-.8c77.922-.4 155.885-1.524 233.804-1 38.967.365 77.935.654 116.902 1.8.11.003.197.095.194.206-.003.106-.089.191-.194.194-38.967 1.146-77.935 1.435-116.902 1.8-77.919.524-155.882-.6-233.804-1l-116.902-.8c-.11-.001-.199-.091-.199-.201.001-.109.09-.198.199-.199z" fill="#fff"/></g><g><path d="m.199 364.729 116.902-.8c77.922-.4 155.885-1.524 233.804-1 38.967.365 77.935.654 116.902 1.8.11.003.197.095.194.206-.003.106-.089.191-.194.194-38.967 1.146-77.935 1.435-116.902 1.8-77.919.524-155.882-.6-233.804-1l-116.902-.8c-.11-.001-.199-.091-.199-.201.001-.11.09-.198.199-.199z" fill="#fff"/></g><g><path d="m.199 375.452 116.902-.8c77.922-.4 155.885-1.524 233.804-1 38.967.365 77.935.654 116.902 1.8.11.003.197.095.194.206-.003.106-.089.191-.194.194-38.967 1.146-77.935 1.435-116.902 1.8-77.919.524-155.882-.6-233.804-1l-116.902-.8c-.11-.001-.199-.091-.199-.201.001-.11.09-.198.199-.199z" fill="#fff"/></g><g><path d="m.199 386.174 116.902-.8c77.922-.4 155.885-1.524 233.804-1 38.967.365 77.935.654 116.902 1.8.11.003.197.095.194.206-.003.106-.089.191-.194.194-38.967 1.146-77.935 1.435-116.902 1.8-77.919.524-155.882-.6-233.804-1l-116.902-.8c-.11-.001-.199-.091-.199-.201.001-.109.09-.198.199-.199z" fill="#fff"/></g><g><path d="m.199 396.398 116.902-.8c77.922-.4 155.885-1.524 233.804-1 38.967.365 77.935.654 116.902 1.8.11.003.197.095.194.206-.003.106-.089.191-.194.194-38.967 1.146-77.935 1.435-116.902 1.8-77.919.524-155.882-.6-233.804-1l-116.902-.8c-.11-.001-.199-.091-.199-.201.001-.109.09-.198.199-.199z" fill="#fff"/></g><g><path d="m.199 406.622 116.902-.8c77.922-.4 155.885-1.524 233.804-1 38.967.365 77.935.654 116.902 1.8.11.003.197.095.194.206-.003.106-.089.191-.194.194-38.967 1.146-77.935 1.435-116.902 1.8-77.919.524-155.882-.6-233.804-1l-116.902-.8c-.11-.001-.199-.091-.199-.201.001-.109.09-.198.199-.199z" fill="#fff"/></g><g><path d="m.199 416.846 116.902-.8c77.922-.4 155.885-1.524 233.804-1 38.967.365 77.935.654 116.902 1.8.11.003.197.095.194.206-.003.106-.089.191-.194.194-38.967 1.146-77.935 1.435-116.902 1.8-77.919.524-155.882-.6-233.804-1l-116.902-.8c-.11-.001-.199-.091-.199-.201.001-.109.09-.198.199-.199z" fill="#fff"/></g><g><path d="m.199 427.07 116.902-.8c77.922-.4 155.885-1.524 233.804-1 38.967.365 77.935.654 116.902 1.8.11.003.197.095.194.206-.003.106-.089.191-.194.194-38.967 1.146-77.935 1.435-116.902 1.8-77.919.524-155.882-.6-233.804-1l-116.902-.8c-.11-.001-.199-.091-.199-.201.001-.11.09-.198.199-.199z" fill="#fff"/></g><g><path d="m.199 437.294 116.902-.8c77.922-.4 155.885-1.524 233.804-1 38.967.365 77.935.654 116.902 1.8.11.003.197.095.194.206-.003.106-.089.191-.194.194-38.967 1.146-77.935 1.435-116.902 1.8-77.919.524-155.882-.6-233.804-1l-116.902-.8c-.11-.001-.199-.091-.199-.201.001-.11.09-.198.199-.199z" fill="#fff"/></g><g><path d="m.199 446.496 116.902-.8c77.922-.4 155.885-1.524 233.804-1 38.967.365 77.935.654 116.902 1.8.11.003.197.095.194.206-.003.106-.089.191-.194.194-38.967 1.146-77.935 1.435-116.902 1.8-77.919.524-155.882-.6-233.804-1l-116.902-.8c-.11-.001-.199-.091-.199-.201.001-.11.09-.198.199-.199z" fill="#fff"/></g><g><path d="m.199 456.72 116.902-.8c77.922-.4 155.885-1.524 233.804-1 38.967.365 77.935.654 116.902 1.8.11.003.197.095.194.206-.003.106-.089.191-.194.194-38.967 1.146-77.935 1.435-116.902 1.8-38.967.262-77.935-.184-116.902-.4l-116.902-.6-116.902-.8c-.11-.001-.199-.091-.199-.201.001-.11.09-.198.199-.199z" fill="#fff"/></g><g><path d="m.199 214.611 116.902-.8c77.922-.4 155.885-1.524 233.804-1 38.967.365 77.935.654 116.902 1.8.11.003.197.095.194.206-.003.106-.089.191-.194.194-38.967 1.146-77.935 1.435-116.902 1.8-77.919.524-155.882-.6-233.804-1l-116.902-.8c-.11-.001-.199-.091-.199-.201.001-.109.09-.198.199-.199z" fill="#fff"/></g><g><path d="m.199 203.889 116.902-.8c77.922-.4 155.885-1.524 233.804-1 38.967.365 77.935.654 116.902 1.8.11.003.197.095.194.206-.003.106-.089.191-.194.194-38.967 1.146-77.935 1.435-116.902 1.8-77.919.524-155.882-.6-233.804-1l-116.902-.8c-.11-.001-.199-.091-.199-.201.001-.11.09-.199.199-.199z" fill="#fff"/></g><g><path d="m.199 193.166 116.902-.8c77.922-.4 155.885-1.524 233.804-1 38.967.365 77.935.654 116.902 1.8.11.003.197.095.194.206-.003.106-.089.191-.194.194-38.967 1.146-77.935 1.435-116.902 1.8-77.919.524-155.882-.6-233.804-1l-116.902-.8c-.11-.001-.199-.091-.199-.201.001-.11.09-.198.199-.199z" fill="#fff"/></g><g><path d="m.199 182.443 116.902-.8c77.922-.4 155.885-1.524 233.804-1 38.967.365 77.935.654 116.902 1.8.11.003.197.095.194.206-.003.106-.089.191-.194.194-38.967 1.146-77.935 1.435-116.902 1.8-77.919.524-155.882-.6-233.804-1l-116.902-.8c-.11-.001-.199-.091-.199-.201.001-.11.09-.198.199-.199z" fill="#fff"/></g><g><path d="m.199 171.721 116.902-.8c77.922-.4 155.885-1.524 233.804-1 38.967.365 77.935.654 116.902 1.8.11.003.197.095.194.206-.003.106-.089.191-.194.194-38.967 1.146-77.935 1.435-116.902 1.8-77.919.524-155.882-.6-233.804-1l-116.902-.8c-.11-.001-.199-.091-.199-.201.001-.11.09-.199.199-.199z" fill="#fff"/></g><g><path d="m.199 160.998 116.902-.8c77.922-.4 155.885-1.524 233.804-1 38.967.365 77.935.654 116.902 1.8.11.003.197.095.194.206-.003.106-.089.191-.194.194-38.967 1.146-77.935 1.435-116.902 1.8-77.919.524-155.882-.6-233.804-1l-116.902-.8c-.11-.001-.199-.091-.199-.201.001-.11.09-.198.199-.199z" fill="#fff"/></g><g><path d="m.199 150.275 116.902-.8c77.922-.4 155.885-1.524 233.804-1 38.967.365 77.935.654 116.902 1.8.11.003.197.095.194.206-.003.106-.089.191-.194.194-38.967 1.146-77.935 1.435-116.902 1.8-77.919.524-155.882-.6-233.804-1l-116.902-.8c-.11-.001-.199-.091-.199-.201.001-.11.09-.198.199-.199z" fill="#fff"/></g><g><path d="m.199 139.552 116.902-.8c77.922-.4 155.885-1.524 233.804-1 38.967.365 77.935.654 116.902 1.8.11.003.197.095.194.206-.003.106-.089.191-.194.194-38.967 1.146-77.935 1.435-116.902 1.8-77.919.524-155.882-.6-233.804-1l-116.902-.8c-.11-.001-.199-.091-.199-.201.001-.109.09-.198.199-.199z" fill="#fff"/></g><g><path d="m.199 128.83 116.902-.8c77.922-.4 155.885-1.524 233.804-1 38.967.365 77.935.654 116.902 1.8.11.003.197.095.194.206-.003.106-.089.191-.194.194-38.967 1.146-77.935 1.435-116.902 1.8-77.919.524-155.882-.6-233.804-1l-116.902-.8c-.11-.001-.199-.091-.199-.201.001-.11.09-.198.199-.199z" fill="#fff"/></g><g><path d="m.199 118.107 116.902-.8c77.922-.4 155.885-1.524 233.804-1 38.967.365 77.935.654 116.902 1.8.11.003.197.095.194.206-.003.106-.089.191-.194.194-38.967 1.146-77.935 1.435-116.902 1.8-77.919.524-155.882-.6-233.804-1l-116.902-.8c-.11-.001-.199-.091-.199-.201.001-.11.09-.198.199-.199z" fill="#fff"/></g><g><path d="m.199 107.384 116.902-.8c77.922-.4 155.885-1.524 233.804-1 38.967.365 77.935.654 116.902 1.8.11.003.197.095.194.206-.003.106-.089.191-.194.194-38.967 1.146-77.935 1.435-116.902 1.8-77.919.524-155.882-.6-233.804-1l-116.902-.8c-.11-.001-.199-.091-.199-.201.001-.109.09-.198.199-.199z" fill="#fff"/></g><g><path d="m.199 96.662 116.902-.8c77.922-.4 155.885-1.524 233.804-1 38.967.365 77.935.654 116.902 1.8.11.003.197.095.194.206-.003.106-.089.191-.194.194-38.967 1.146-77.935 1.435-116.902 1.8-77.919.524-155.882-.6-233.804-1l-116.902-.8c-.111-.001-.2-.091-.199-.202.001-.109.09-.197.199-.198z" fill="#fff"/></g><g><path d="m.199 85.939 116.902-.8c77.922-.4 155.885-1.524 233.804-1 38.967.365 77.935.654 116.902 1.8.11.003.197.095.194.206-.003.106-.089.191-.194.194-38.967 1.146-77.935 1.435-116.902 1.8-77.919.524-155.882-.6-233.804-1l-116.902-.8c-.111-.001-.2-.091-.199-.201s.09-.198.199-.199z" fill="#fff"/></g><g><path d="m.199 75.216 116.902-.8c77.922-.4 155.885-1.524 233.804-1 38.967.365 77.935.654 116.902 1.8.11.003.197.095.194.206-.003.106-.089.191-.194.194-38.967 1.146-77.935 1.435-116.902 1.8-77.919.524-155.882-.6-233.804-1l-116.902-.8c-.111 0-.2-.091-.199-.201s.09-.198.199-.199z" fill="#fff"/></g><g><path d="m.199 64.494 116.902-.8c77.922-.4 155.885-1.524 233.804-1 38.967.365 77.935.654 116.902 1.8.11.003.197.095.194.206-.003.106-.089.191-.194.194-38.967 1.146-77.935 1.435-116.902 1.8-77.919.524-155.882-.6-233.804-1l-116.902-.8c-.111-.001-.2-.091-.199-.202.001-.109.09-.198.199-.198z" fill="#fff"/></g><g><path d="m.199 53.771 116.902-.8c77.922-.4 155.885-1.524 233.804-1 38.967.365 77.935.654 116.902 1.8.11.003.197.095.194.206-.003.106-.089.191-.194.194-38.967 1.146-77.935 1.435-116.902 1.8-77.919.524-155.882-.6-233.804-1l-116.902-.8c-.111-.001-.2-.091-.199-.201s.09-.198.199-.199z" fill="#fff"/></g><g><path d="m.199 43.048 116.902-.8c77.922-.4 155.885-1.524 233.804-1 38.967.365 77.935.654 116.902 1.8.11.003.197.095.194.206-.003.106-.089.191-.194.194-38.967 1.146-77.935 1.435-116.902 1.8-77.919.524-155.882-.6-233.804-1l-116.902-.8c-.111-.001-.2-.091-.199-.201s.09-.198.199-.199z" fill="#fff"/></g><g><path d="m.199 32.326 116.902-.8c77.922-.4 155.885-1.524 233.804-1 38.967.365 77.935.654 116.902 1.8.11.003.197.095.194.206-.003.106-.089.191-.194.194-38.967 1.146-77.935 1.435-116.902 1.8-77.919.524-155.882-.6-233.804-1l-116.902-.8c-.111-.001-.2-.091-.199-.202.001-.109.09-.198.199-.198z" fill="#fff"/></g><g><path d="m.199 21.603 116.902-.8c77.922-.4 155.885-1.524 233.804-1 38.967.365 77.935.654 116.902 1.8.11.003.197.095.194.206-.003.106-.089.191-.194.194-38.967 1.146-77.935 1.435-116.902 1.8-77.919.524-155.882-.6-233.804-1l-116.902-.8c-.111-.001-.2-.091-.199-.202.001-.109.09-.197.199-.198z" fill="#fff"/></g><g><path d="m.199 10.88 116.902-.8c77.922-.4 155.885-1.524 233.804-1 38.967.365 77.935.654 116.902 1.8.11.003.197.095.194.206-.003.106-.089.191-.194.194-38.967 1.146-77.935 1.435-116.902 1.8-77.919.524-155.882-.6-233.804-1l-116.902-.8c-.111-.001-.2-.091-.199-.201s.09-.198.199-.199z" fill="#fff"/></g></g></g><g><g><g><g><path d="m455.897 318.724h-443.794v-278.552c0-11.046 8.954-20 20-20h403.793c11.046 0 20 8.954 20 20v278.552z" fill="#b0bec5"/></g><g><path d="m26.224 318.724v-278.431c0-3.314 2.686-6 6-6h403.552c3.314 0 6 2.686 6 6v278.431z" fill="#fff"/></g><g><g><path d="m448 360.078h-428c-11.046 0-20-8.954-20-20v-21.353h468v21.353c0 11.045-8.954 20-20 20z" fill="#78909c"/></g></g></g><g><g><path d="m356.426 52.027c2.988-.292 12.102-32.578-5.98-46.423-11.282-8.638-28.344-6.416-38.871.749-14.863 10.116-18.977 31.635-24.668 61.399-1.634 8.547-10.781 23.852-18.26 35.317-5.326 8.164-2.729 19.122 5.718 23.987l.008.005c6.684 3.85 9.939 11.725 7.894 19.163-1.69 6.145-3.983 13.499-6.688 19.694-3.229 7.395-3.308 15.787-.372 23.303 4.969 12.72 18.66 19.722 31.882 16.304s15.058-25.512 16.744-56.906c1.43-26.632-6.614-26.306-7.027-50.916-.416-24.789-10.11-31.537-4.485-47.172 5.549-15.423 21.839-27.915 31.396-24.709 10.829 3.63 10.165 26.453 12.709 26.205z" fill="#4c4c4c"/></g><g><g><path d="m280.116 288.613-10.82 30.111h135.184l-7.776-27.191 7.305-30.236 2.461 57.427h34.9l-8.622-134.01c-.991-15.401-10.68-28.887-24.959-34.74l-44.769-18.352-45.73.795-45.357 13.897c-7 2.145-13.152 6.435-17.59 12.267l-56.729 74.549-49.56-64.244-15.743 11.681s38.482 96.95 57.14 94.614 75.215-54.899 75.215-54.899z" fill="#6184f2"/></g><g><path d="m310.262 134.57-38.331 11.744c-7 2.145-13.152 6.435-17.59 12.266l-56.729 74.549-49.56-64.244v14.121l49.56 64.244 56.729-74.549c4.438-5.831 16.641-15.165 23.642-17.31l32.279-9.89z" fill="#6262ef"/></g></g><g><path d="m354.456 91.209-40.815 8.177 6.997 63.368h48.977z" fill="#ffc1b0"/></g><g><path d="m313.641 99.386 6.997 63.368h10.086l-6.996-63.368z" fill="#ffac99"/></g><g><path d="m316.411 171.514 18.983 66.036 24.66-67.71-23.382-7.086z" fill="#fff"/></g><g><path d="m317.289 132.417 19.383 30.337-16.963 20.06-20.644-44.813z" fill="#ededed"/></g><g><path d="m371.37 135.183-34.698 27.571 17.388 20.06 35.683-39.798z" fill="#ededed"/></g><g><path d="m351.973 51.672c-15.716-19.236-30.415-22.142-30.415-22.142-6.725-1.003-13.877-.041-15.543-4.105-1.486-3.625-.035-8.943 7.079-15.448 10.486-9.589 27.676-8.862 38.788-2.642 15.688 8.782 21.662 29.861 29.925 59.015 2.373 8.372 12.818 22.821 21.268 33.591 6.018 7.669 4.385 18.811-3.606 24.395l-.008.005c-6.323 4.418-8.879 12.547-6.194 19.778 5.089 13.701 15.283 26.856 10.806 42.127-6.698 22.848-38.945 30.717-51 7.676-10.125-19.352-1.871-36.483 3.034-71.029 5.128-36.11 8.004-56.364-4.134-71.221z" fill="#4c4c4c"/></g><g><path d="m331.716 123.915s-32.659-4.672-32.651-49.643c.007-39.135 29.153-44.387 29.153-44.387s40.814-1.168 38.482 47.015-34.984 47.015-34.984 47.015z" fill="#ffd7cc"/></g><g><path d="m404.007 263.297c-1.039 0-1.917-.804-1.993-1.856l-2.325-32.255c-.079-1.102.75-2.059 1.852-2.139 1.116-.062 2.06.751 2.139 1.852l2.325 32.255c.079 1.102-.75 2.059-1.852 2.139-.049.002-.098.004-.146.004z" fill="#6262ef"/></g><g><path d="m330.788 320.725c-.044 0-.089-.001-.133-.004-1.103-.073-1.938-1.025-1.865-2.127 1.778-27.038 3.086-54.103 4.606-81.155.063-1.103 1.026-1.936 2.109-1.885 1.103.063 1.946 1.007 1.885 2.109-1.525 27.065-2.83 54.142-4.608 81.192-.07 1.058-.949 1.87-1.994 1.87z" fill="#6262ef"/></g><g><ellipse cx="348.771" cy="289.435" fill="#6262ef" rx="3.498" ry="3.504"/></g><g><ellipse cx="350.52" cy="259.119" fill="#6262ef" rx="3.498" ry="3.504"/></g><g><path d="m322.719 10.387c-8.536 7.81-1.418 35.194 15.269 50.451 9.629 8.804 26.911 17.653 33.698 11.807 9.629-8.293-.376-47.444-25.273-60.111-1.535-.781-16.874-8.387-23.694-2.147z" fill="#4c4c4c"/></g><g><path d="m157.342 154.082c-3.073-1.695-6.938-.412-8.389 2.783l-1.821 4.01c-2.547-4.772-5.656-10.599-7.888-14.781-1.595-2.989-5.406-4.039-8.365-2.287-2.705 1.602-3.658 5.056-2.159 7.818l5.12 9.434c-6.137 2.784-10.248 9.174-9.5 16.432.773 7.502 6.839 13.525 14.329 14.405 9.978 1.173 18.452-6.489 18.452-16.104 0-1.827-.32-3.576-.884-5.215l3.745-8.886c1.197-2.838.058-6.122-2.64-7.609z" fill="#ffcdbd"/></g></g><g><g><g><g><path d="m31.348 81.024.118 1.148c1.822 17.768 19.194 29.622 36.403 24.84 3.751-1.042 5.976-4.897 5.002-8.666-4.542-17.583-23.849-26.812-40.385-19.305-.766.348-1.224 1.146-1.138 1.983z" fill="#16dba2"/></g><g><path d="m69.886 102.978c-17.059 4.74-34.269-6.871-36.343-24.381-.353.144-.706.285-1.057.444-.766.348-1.224 1.146-1.138 1.983l.118 1.148c1.822 17.768 19.194 29.622 36.403 24.84 2.816-.783 4.772-3.15 5.16-5.877-.844.849-1.909 1.5-3.143 1.843z" fill="#14c679"/></g></g><g><g><path d="m156.327 82.455-.118 1.148c-1.822 17.768-19.195 29.622-36.403 24.84-3.751-1.042-5.976-4.897-5.002-8.666 4.542-17.583 23.849-26.812 40.385-19.305.766.348 1.224 1.146 1.138 1.983z" fill="#16dba2"/></g><g><path d="m117.83 102.803c4.368-16.909 22.389-26.084 38.471-20.087l.027-.262c.086-.837-.372-1.635-1.139-1.983-16.536-7.507-35.843 1.722-40.385 19.305-.847 3.279.728 6.62 3.621 8.12-.794-1.513-1.056-3.31-.595-5.093z" fill="#14c679"/></g></g><g><path d="m136.324 92.535c-.549-.959-1.77-1.292-2.729-.742l-19.266 11.026c-7.871 4.505-13.966 11.333-17.663 19.324v-58.332c0-1.104-.896-2-2-2s-2 .896-2 2v57.467c-3.513-7.33-9.189-13.582-16.468-17.732l-20.615-11.755c-.959-.548-2.182-.214-2.728.747-.547.959-.213 2.181.747 2.728l20.615 11.754c11.38 6.489 18.449 18.658 18.449 31.758v14.681c0 1.104.896 2 2 2s2-.896 2-2v-13.28c0-13.965 7.529-26.95 19.65-33.888l19.266-11.026c.959-.549 1.291-1.772.742-2.73z" fill="#14c679"/><g><path d="m96.292 36.85c14.57 10.879 16.205 32.108 3.473 45.089-2.799 2.854-7.396 2.854-10.196 0-12.732-12.981-11.097-34.21 3.473-45.089.963-.72 2.286-.72 3.25 0z" fill="#16dba2"/></g><g><path d="m93.603 81.939c-12.614-12.862-11.118-33.813 3.081-44.779-.132-.102-.258-.209-.392-.31-.964-.72-2.287-.72-3.251 0-14.569 10.879-16.204 32.107-3.473 45.089 1.914 1.952 4.669 2.567 7.115 1.849-1.13-.332-2.195-.947-3.08-1.849z" fill="#14c679"/></g></g></g><g><path d="m112.345 185.586h-35.573l-11.03-46.651h57.633z" fill="#ffd54f"/></g><g><path d="m65.742 138.935 11.03 46.651h10.086l-11.03-46.651z" fill="#ff9852"/></g></g></g><g><g><path d="m152 264.757s20.821-29.239 30.921-16.097c10.584 13.771-30.921 32.194-30.921 32.194z" fill="#ffd7cc"/></g><g><path d="m106.503 264.757s-20.821-29.239-30.921-16.097c-10.584 13.771 30.921 32.194 30.921 32.194z" fill="#ffd7cc"/></g><g><path d="m74.997 314.752s-24.156 7.913-61.821 81.246c-36.374 70.819 13.2 61.732 21.648 59.094s52.273-18.995 52.273-18.995v-17.939l-44.353 5.804 36.433-79.312z" fill="#ffd7cc"/></g><g><path d="m185.791 314.751s33.133 13.014 61.869 81.246c30.9 73.369-13.2 61.732-21.648 59.094s-48.049-18.995-48.049-18.995v-17.939l40.129 5.804-44.353-90.224z" fill="#ffd7cc"/></g><g><g><path d="m241.007 381.297c-26.957-55.442-55.216-66.545-55.216-66.545-9.597-6.793-23.208-9.027-34.277-12.488h-42.24c-11.124 3.478-24.609 5.728-34.277 12.488 0 0-21.027 6.897-54.43 67.364l32.181 20.069 9.269-20.178v85.993h136.754v-83.341l8.645 17.586z" fill="#f66"/></g><g><path d="m118.009 302.264h-8.735c-11.124 3.477-24.609 5.728-34.277 12.488 0 0-21.027 6.897-54.43 67.364l7.742 4.828c33.006-59.328 53.748-66.141 53.748-66.141 9.667-6.76 23.152-9.011 34.277-12.488h1.675z" fill="#e55c5c"/></g></g><g><ellipse cx="129.252" cy="250.359" fill="#4c4c4c" rx="45.409" ry="50.652"/></g><g><path d="m93.929 250.359c0-26.072 17.662-47.534 40.366-50.334-1.657-.204-3.338-.318-5.043-.318-25.079 0-45.409 22.678-45.409 50.652 0 27.975 20.33 50.652 45.409 50.652 1.705 0 3.386-.114 5.043-.318-22.704-2.799-40.366-24.262-40.366-50.334z" fill="#3f3f3f"/></g><g><path d="m176.739 311.512c.691-2.452 1.068-5.035 1.068-7.708 0-15.675-12.707-28.383-28.383-28.383-7.891 0-15.028 3.223-20.172 8.421-5.144-5.198-12.281-8.421-20.172-8.421-15.675 0-28.383 12.707-28.383 28.383 0 2.673.377 5.256 1.068 7.708-6.779 5.187-11.154 13.356-11.154 22.551 0 15.675 12.707 28.383 28.383 28.383.656 0 1.305-.031 1.95-.074-.044.645-.074 1.294-.074 1.95 0 15.675 12.707 28.383 28.383 28.383s28.383-12.707 28.383-28.383c0-.656-.03-1.305-.074-1.95.645.044 1.294.074 1.95.074 15.675 0 28.383-12.707 28.383-28.383-.002-9.196-4.378-17.364-11.156-22.551z" fill="#4c4c4c"/></g><g><path d="m109.947 361.295c0-.656.03-1.305.074-1.95-.645.044-1.294.074-1.95.074-15.675 0-28.383-12.707-28.383-28.383 0-9.195 4.376-17.364 11.154-22.551-.691-2.452-1.068-5.035-1.068-7.708 0-10.836 6.074-20.25 15-25.032-13.633 2.074-24.078 13.846-24.078 28.058 0 2.673.377 5.256 1.068 7.708-6.779 5.187-11.154 13.356-11.154 22.551 0 15.675 12.707 28.383 28.383 28.383.656 0 1.305-.031 1.95-.074-.044.645-.074 1.294-.074 1.95 0 15.675 12.707 28.383 28.383 28.383 4.84 0 9.395-1.214 13.382-3.351-1.404.213-2.841.325-4.305.325-15.675 0-28.382-12.708-28.382-28.383z" fill="#3f3f3f"/></g><g><path d="m152.45 285.188-.001-.001c-14.796-6.433-31.598-6.433-46.394 0l-.001.001v-18.155c14.796-6.433 31.6-6.433 46.396 0z" fill="#ffd54f"/></g></g><g><g><g><path d="m468 468h-160.172c-5.523 0-10-4.477-10-10v-18.319c0-5.523 4.477-10 10-10h160.172z" fill="#ffd54f"/></g><g><path d="m307.914 457.914v-18.146c0-5.571 4.516-10.086 10.086-10.086h-10.086c-5.57 0-10.086 4.516-10.086 10.086v18.146c0 5.571 4.516 10.086 10.086 10.086h10.086c-5.57 0-10.086-4.516-10.086-10.086z" fill="#ff9852"/></g><g><path d="m446.457 457.916h-78.69c-1.105 0-2-.895-2-2v-14.151c0-1.105.895-2 2-2h78.69z" fill="#fff"/></g><g><circle cx="329.457" cy="449.243" fill="#fff" r="7.06"/></g></g><g><g><path d="m284.716 429.681h160.172c5.523 0 10-4.477 10-10v-18.319c0-5.523-4.477-10-10-10h-160.172z" fill="#16dba2"/></g><g><path d="m444.802 391.363h-10.086c5.57 0 10.086 4.516 10.086 10.086v18.146c0 5.571-4.516 10.086-10.086 10.086h10.086c5.57 0 10.086-4.516 10.086-10.086v-18.146c0-5.571-4.516-10.086-10.086-10.086z" fill="#14c679"/></g><g><path d="m306.259 419.597h78.69c1.105 0 2-.895 2-2v-14.151c0-1.105-.895-2-2-2h-78.69z" fill="#fff"/></g><g><circle cx="423.259" cy="410.924" fill="#fff" r="7.06"/></g></g></g><g><g><g><path d="m398.002 349.043 23.916 23.396-8.303-32.41c-6.839-26.695-20.647-51.156-40.273-70.5-7.355-7.25-13.903-12.169-16.875-10.454-2.972 1.716-1.985 9.846.616 19.841 6.94 26.669 21.22 50.857 40.919 70.127z" fill="#bcbcbc"/></g><g><path d="m414.484 361.56c-.691 0-1.363-.358-1.734-1l-44.882-77.737c-.552-.957-.225-2.18.732-2.732.955-.554 2.18-.225 2.732.732l44.882 77.737c.552.957.225 2.18-.732 2.732-.314.182-.659.268-.998.268z" fill="#aaa"/></g></g><g><g><path d="m421.076 349.043-23.916 23.396 8.303-32.41c6.839-26.695 20.647-51.156 40.273-70.5 7.355-7.25 13.903-12.169 16.875-10.454 2.972 1.716 1.985 9.846-.616 19.841-6.94 26.669-21.22 50.857-40.919 70.127z" fill="#bcbcbc"/></g><g><path d="m404.594 361.56c-.339 0-.683-.086-.998-.268-.957-.553-1.284-1.775-.732-2.732l44.882-77.737c.553-.957 1.772-1.286 2.732-.732.957.553 1.284 1.775.732 2.732l-44.882 77.737c-.371.641-1.043 1-1.734 1z" fill="#aaa"/></g></g><g><g><path d="m400.525 338.815 9.014 32.219 9.014-32.219c7.425-26.538 7.697-54.626.373-81.192-2.745-9.956-5.956-17.49-9.387-17.49s-6.642 7.534-9.387 17.49c-7.325 26.566-7.052 54.655.373 81.192z" fill="#d6d6d6"/></g><g><path d="m409.539 358.163c-1.104 0-2-.896-2-2v-89.764c0-1.104.896-2 2-2s2 .896 2 2v89.764c0 1.105-.895 2-2 2z" fill="#bcbcbc"/></g></g><g><g><path d="m396.514 391.363h26.05c4.849 0 9.024-3.422 9.975-8.177l8.537-42.652h-63.074l8.537 42.652c.951 4.754 5.126 8.177 9.975 8.177z" fill="#ff669d"/></g><g><path d="m396.712 383.186-8.537-42.652h-10.173l8.537 42.652c.952 4.755 5.127 8.177 9.975 8.177h10.173c-4.848 0-9.024-3.423-9.975-8.177z" fill="#ef508d"/></g><g><path d="m446.162 342.533h-73.246c-1.104 0-2-.896-2-2s.896-2 2-2h73.246c1.104 0 2 .896 2 2s-.895 2-2 2z" fill="#f47db3"/></g></g></g></g></g></svg>