<svg clip-rule="evenodd" fill-rule="evenodd" height="512" image-rendering="optimizeQuality" shape-rendering="geometricPrecision" text-rendering="geometricPrecision" viewBox="0 0 512 512" width="512" xmlns="http://www.w3.org/2000/svg"><g id="Layer_x0020_1"><g id="_658780920"><g><path d="m199 512s0 0-1 0c-3-1-6-4-6-8l12-88c1-4 4-7 8-6 3 0 5 3 6 6 20-3 79-6 82-6 4-1 7 2 8 6l12 88c0 4-2 7-6 8-1 0-1 0-1 0-4 0-90-3-91-6h-16c0 3-3 6-7 6z" fill="#445a63"/><path d="m479 424h-446c-15 0-28-13-28-29v-300c0-15 13-28 28-28h446c15 0 28 13 28 28v300c0 16-13 29-28 29z" fill="#546f7a"/><path d="m365 512h-218c-4 0-7-3-7-7s3-7 7-7h218c4 0 7 3 7 7s-3 7-7 7z" fill="#546f7a"/><path d="m25 355h462v-260c0-5-4-9-8-9h-446c-4 0-8 4-8 9z" fill="#b0ffff"/></g><path d="m445 342h-378c-4 0-7-3-7-7s3-7 7-7h378c4 0 7 3 7 7s-3 7-7 7z" fill="#fff"/><path d="m270 389c0-4-3-7-7-7h-14c-4 0-7 3-7 7s3 7 7 7h14c4 0 7-3 7-7z" fill="#82969e"/><g><path d="m256 315c-2 0-3-1-3-1-1 0-22-14-56-24-32-9-81-18-134-7-2 1-4 0-5-1s-2-2-2-4v-234c0-3 2-6 5-6h389c3 0 5 3 5 6v234c0 2-1 3-2 4s-3 2-5 2c-53-12-102-3-134 6-34 11-55 24-56 24 0 0-1 1-2 1z" fill="#fc4549"/><path d="m256 272h-1c-1 0-2 0-2-1 0 0-18-10-46-18-25-7-63-14-103-5-2 0-3 0-5-1-1-1-2-3-2-5v-233c0-3 2-5 4-6 1 0 18-4 45-3 25 1 64 7 110 27 45-20 84-26 109-27 28-1 44 3 45 3 2 1 4 3 4 6v233c0 2-1 4-2 5-2 1-3 1-5 1-40-9-78-2-103 5-28 8-46 18-46 18 0 1-1 1-2 1z" fill="#fbd9bc"/><path d="m256 272h-1c-1 0-2 0-2-1 0 0-1 0-2-1v-242-3c2 0 3 1 5 2 1-1 2-2 4-2v3 242c-1 1-2 1-2 1 0 1-1 1-2 1z" fill="#e4be9c"/><g fill="#e6e6e6"><path d="m237 228c-1 0-2 0-3 0 0-1-54-31-112-20-3 0-5-1-6-5 0-2 1-5 5-6 62-11 116 20 119 21 2 2 3 5 2 7s-3 3-5 3z"/><path d="m237 191c-1 0-2 0-3-1s-54-31-112-20c-2 0-5-2-6-5 0-3 2-6 5-6 62-11 116 20 119 22 2 1 3 4 2 7-2 2-3 3-5 3z"/><path d="m237 153c-1 0-2-1-3-1s-54-30-112-20c-3 1-5-1-6-4 0-3 1-6 5-6 62-12 116 19 119 20 2 2 3 5 2 8-1 2-3 3-5 3z"/><path d="m237 114c-1 0-2 0-3 0 0-1-54-30-112-20-3 1-5-1-6-4 0-3 1-6 5-7 62-11 116 20 119 21 2 2 3 5 2 8-1 1-3 2-5 2z"/><path d="m237 77c-1 0-2 0-3-1s-54-30-112-19c-3 0-5-2-6-5 0-3 1-5 5-6 62-11 116 20 119 21 2 1 3 5 2 7s-3 3-5 3z"/><path d="m274 228c-2 0-4-1-5-2-1-3 0-6 2-8 3-1 57-32 119-21 3 1 5 4 5 6-1 3-4 5-6 5-59-11-112 19-112 20-1 0-2 0-3 0z"/><path d="m274 191c-2 0-3-1-4-3-2-2-1-6 1-7 3-2 57-33 119-22 3 1 5 3 5 6-1 3-3 5-6 5-59-11-111 20-112 20-1 1-2 1-3 1z"/><path d="m274 153c-2 0-4-1-5-3-1-3 0-6 2-8 3-1 57-32 119-20 3 0 5 3 5 6-1 3-4 5-6 4-59-10-112 20-112 20-1 0-2 1-3 1z"/><path d="m274 114c-2 0-4-1-5-2-1-3 0-6 2-8 3-1 57-32 119-21 3 1 5 4 5 7-1 3-4 5-6 4-59-10-112 19-112 20-1 0-2 0-3 0z"/><path d="m274 77c-2 0-4-1-5-3s0-6 2-7c3-1 57-32 119-21 3 1 5 3 5 6-1 3-4 5-6 5-59-11-112 19-112 19-1 1-2 1-3 1z"/></g></g></g></g></svg>