<svg id="Layer_1" viewBox="0 0 512 512" xmlns="http://www.w3.org/2000/svg" data-name="Layer 1"><path d="m100.89 16h310.22c10.52 0 19.06 8.54 19.06 19.06v223.23c0 10.52-8.54 19.06-19.06 19.06h-310.22c-10.52 0-19.06-8.54-19.06-19.06v-223.23c0-10.52 8.54-19.06 19.06-19.06z" fill="#c4e4ff"/><path d="m200.12 234.41h118.75v96.12h-125.75v-96.12zm104.76 14h-97.76v68.12h97.76z" fill="#555d86" fill-rule="evenodd"/><path d="m430.17 222.74v38.7c0 8.75-8.29 15.91-18.42 15.91h-311.49c-10.13 0-18.42-7.16-18.42-15.91v-38.7z" fill="#555d86" fill-rule="evenodd"/><rect fill="#555d86" height="33.98" rx="6.67" width="271.06" x="120.47" y="305.56"/><g fill-rule="evenodd"><path d="m146.63 103.85h55.6c4.2-5.68 6.67-12.7 6.67-20.29 0-18.95-15.43-34.31-34.47-34.31s-34.47 15.36-34.47 34.31c0 7.59 2.48 14.61 6.67 20.29z" fill="#545d85"/><path d="m172.09 66.75c-3.71 11.38-13.28 17.31-25.8 17.91-.93 2.86-1.44 5.92-1.44 9.09 0 16.26 13.25 29.44 29.58 29.44s29.58-13.18 29.58-29.44-15.05-27.81-31.93-27z" fill="#ffe8db"/><path d="m195.63 123.19h-42.4c-14.99 0-27.25 12.2-27.25 27.12v39.18h96.9v-39.18c0-14.92-12.26-27.12-27.25-27.12z" fill="#c2ed56"/><path d="m270.54 72.82c-3.87 0-7-3.13-7-7s3.13-7 7-7h115.47c3.87 0 7 3.13 7 7s-3.13 7-7 7z" fill="#555d86"/><path d="m270.54 144.22c-3.87 0-7-3.13-7-7s3.13-7 7-7h115.47c3.87 0 7 3.13 7 7s-3.13 7-7 7z" fill="#555d86"/><path d="m270.54 108.52c-3.87 0-7-3.13-7-7s3.13-7 7-7h115.47c3.87 0 7 3.13 7 7s-3.13 7-7 7z" fill="#555d86"/><path d="m270.54 179.92c-3.87 0-7-3.13-7-7s3.13-7 7-7h115.47c3.87 0 7 3.13 7 7s-3.13 7-7 7z" fill="#555d86"/><path d="m133.45 388.67h-68.63c-24.26 0-44.12 19.76-44.12 43.9v63.42h156.87v-63.42c0-24.15-19.85-43.9-44.12-43.9z" fill="#ffe177"/><path d="m290.31 388.67h-68.63c-24.26 0-44.12 19.76-44.12 43.9v63.42h156.86v-63.42c0-24.15-19.85-43.9-44.12-43.9z" fill="#f37c7c"/><path d="m447.18 388.67h-68.63c-24.26 0-44.12 19.76-44.12 43.9v63.42h156.86v-63.42c0-24.15-19.85-43.9-44.12-43.9z" fill="#559dd4"/></g><circle cx="412.86" cy="340.38" fill="#ffe8db" r="46.59" transform="matrix(.529 -.848 .848 .529 -94.5 510.37)"/><circle cx="256" cy="340.38" fill="#ffe8db" r="46.59"/><circle cx="99.14" cy="340.38" fill="#ffe8db" r="46.59"/></svg>