<?xml version="1.0" encoding="UTF-8"?>
<!DOCTYPE svg PUBLIC "-//W3C//DTD SVG 1.1//EN" "http://www.w3.org/Graphics/SVG/1.1/DTD/svg11.dtd">
<!-- Creator: CorelDRAW 2021.5 -->
<svg xmlns="http://www.w3.org/2000/svg" xml:space="preserve" width="297mm" height="210mm" version="1.1" style="shape-rendering:geometricPrecision; text-rendering:geometricPrecision; image-rendering:optimizeQuality; fill-rule:evenodd; clip-rule:evenodd"
viewBox="0 0 29700 21000"
 xmlns:xlink="http://www.w3.org/1999/xlink"
 xmlns:xodm="http://www.corel.com/coreldraw/odm/2003">
 <defs>
  <style type="text/css">
   <![CDATA[
    .fil0 {fill:none}
    .fil4 {fill:#E31E24}
    .fil3 {fill:#3D4B66}
    .fil2 {fill:#E31E24;fill-rule:nonzero}
    .fil1 {fill:#3D4B66;fill-rule:nonzero}
   ]]>
  </style>
 </defs>
 <g id="Layer_x0020_1">
  <metadata id="CorelCorpID_0Corel-Layer"/>
  <polygon class="fil0" points="1214.9,4970.64 28407.1,4970.64 28407.1,15701.79 1214.9,15701.79 "/>
  <rect class="fil0" x="-0.53" y="7.13" width="29700" height="21000"/>
  <g id="_1340815155408">
   <path class="fil1" d="M11751.88 7678.78c353.36,0 660.17,127.74 920.41,383.21 260.25,255.47 390.37,572.42 390.37,950.85 0,378.43 -124.15,700.75 -372.46,966.96 -248.31,266.22 -553.92,399.33 -916.83,399.33 -362.91,0 -671.5,-131.32 -925.78,-393.95 -254.28,-262.64 -381.42,-575.41 -381.42,-938.32 0,-198.17 35.82,-383.8 107.44,-556.9 71.63,-173.1 167.13,-318.15 286.51,-435.14 119.38,-116.99 256.67,-208.91 411.86,-275.76 155.19,-66.85 315.16,-100.28 479.9,-100.28zm-651.81 1350.17c0,212.5 68.65,385 205.93,517.51 137.29,132.51 290.69,198.77 460.21,198.77 169.52,0 322.32,-64.47 458.41,-193.4 136.09,-128.93 204.14,-302.03 204.14,-519.29 0,-217.27 -68.64,-391.57 -205.93,-522.88 -137.28,-131.32 -290.69,-196.98 -460.2,-196.98 -169.52,0 -322.33,66.26 -458.42,198.77 -136.09,132.51 -204.14,305.01 -204.14,517.5zm4132.89 -787.9c62.08,126.55 93.12,267.41 93.12,422.6 0,155.2 -31.04,295.47 -93.12,420.81 -62.08,125.35 -142.06,225.03 -239.95,299.05 -198.17,152.8 -403.5,229.21 -615.99,229.21l-447.67 0 0 404.69c0,54.91 -1.8,96.1 -5.38,123.56 -3.58,27.45 -14.92,59.09 -34.02,94.9 -33.43,64.47 -126.54,96.7 -279.35,96.7 -167.13,0 -265.02,-44.17 -293.67,-132.51 -14.32,-40.59 -21.49,-102.67 -21.49,-186.23l0 -1987.66c0,-54.91 1.8,-96.1 5.38,-123.55 3.58,-27.46 14.92,-59.1 34.02,-94.91 33.43,-64.46 126.54,-96.7 279.35,-96.7l766.41 0c210.1,0 414.24,76.41 612.41,229.21 97.89,74.02 177.87,174.29 239.95,300.83zm-852.36 737.76c71.62,0 142.06,-26.26 211.3,-78.79 69.24,-52.52 103.86,-131.31 103.86,-236.37 0,-105.05 -34.62,-184.44 -103.86,-238.16 -69.24,-53.72 -140.87,-80.58 -214.88,-80.58l-447.67 0 0 633.9 451.25 0zm2123.74 988.46c-62.08,-76.4 -93.12,-145.05 -93.12,-205.93 0,-60.88 51.34,-141.46 154,-241.74 59.69,-57.3 122.96,-85.95 189.81,-85.95 66.86,0 159.97,59.69 279.35,179.07 33.43,40.58 81.18,79.38 143.26,116.39 62.07,37.01 119.37,55.51 171.9,55.51 222.04,0 333.07,-90.73 333.07,-272.18 0,-54.92 -30.44,-100.88 -91.33,-137.89 -60.88,-37 -136.69,-63.86 -227.41,-80.58 -90.73,-16.71 -188.62,-43.57 -293.68,-80.58 -105.05,-37 -202.94,-80.58 -293.67,-130.72 -90.73,-50.13 -166.53,-129.52 -227.41,-238.16 -60.89,-108.63 -91.33,-239.35 -91.33,-392.16 0,-210.1 78.19,-393.35 234.58,-549.73 156.39,-156.39 369.48,-234.58 639.27,-234.58 143.26,0 273.98,18.5 392.16,55.51 118.19,37.01 199.96,74.61 245.33,112.81l89.53 68.05c74.01,69.24 111.02,127.73 111.02,175.48 0,47.75 -28.65,113.41 -85.95,196.98 -81.18,119.38 -164.74,179.07 -250.7,179.07 -50.14,0 -112.21,-23.88 -186.23,-71.63 -7.16,-4.78 -20.89,-16.71 -41.18,-35.81 -20.3,-19.11 -38.8,-34.62 -55.51,-46.56 -50.14,-31.04 -114.01,-46.56 -191.61,-46.56 -77.59,0 -142.06,18.5 -193.39,55.51 -51.33,37.01 -77,88.34 -77,154 0,65.66 30.44,118.78 91.33,159.37 60.88,40.59 136.68,68.05 227.41,82.37 90.73,14.33 189.81,36.41 297.25,66.26 107.45,29.84 206.53,66.25 297.26,109.23 90.73,42.97 166.53,117.59 227.41,223.83 60.89,106.25 91.33,236.97 91.33,392.16 0,155.19 -31.04,291.88 -93.12,410.07 -62.07,118.18 -143.25,209.51 -243.53,273.97 -193.39,126.54 -399.92,189.81 -619.57,189.81 -112.22,0 -218.47,-13.72 -318.75,-41.18 -100.27,-27.46 -181.45,-61.48 -243.53,-102.07 -126.54,-76.4 -214.88,-150.42 -265.02,-222.05l-32.23 -39.39zm2048.53 -1941.1c0,-54.91 1.8,-96.1 5.38,-123.55 3.58,-27.46 14.92,-59.1 34.02,-94.91 33.43,-64.46 126.54,-96.7 279.35,-96.7 167.13,0 266.21,44.17 297.25,132.51 11.94,40.59 17.91,102.67 17.91,186.23l0 1991.24c0,57.3 -1.8,99.08 -5.38,125.35 -3.58,26.26 -14.92,57.3 -34.02,93.11 -33.43,64.47 -126.54,96.7 -279.35,96.7 -167.13,0 -265.02,-45.36 -293.67,-136.09 -14.32,-38.2 -21.49,-99.09 -21.49,-182.65l0 -1991.24zm2616.19 -205.93c22.68,-41.78 56.7,-69.83 102.07,-84.16 45.36,-14.32 102.07,-21.49 170.11,-21.49 68.05,0 122.96,5.97 164.74,17.91 41.79,11.94 72.83,26.26 93.12,42.98 20.29,16.71 35.22,41.78 44.77,75.21 14.32,38.2 21.48,99.08 21.48,182.65l0 1987.65c0,57.3 -1.79,99.08 -5.37,125.35 -3.58,26.26 -14.92,57.3 -34.02,93.11 -33.43,64.47 -126.54,96.7 -279.35,96.7 -93.11,0 -157.58,-7.16 -193.39,-21.49 -35.81,-14.32 -65.66,-37.01 -89.53,-68.04 -537.21,-716.28 -890.57,-1184.24 -1060.09,-1403.9l0 1178.27c0,57.3 -1.79,99.08 -5.37,125.35 -3.58,26.26 -14.92,57.3 -34.02,93.11 -33.43,64.47 -126.54,96.7 -279.35,96.7 -148.03,0 -238.75,-32.23 -272.18,-96.7 -19.1,-35.81 -30.44,-68.04 -34.02,-96.69 -3.58,-28.65 -5.38,-70.44 -5.38,-125.35l0 -1998.4c0,-90.73 11.35,-156.98 34.03,-198.77 22.68,-41.78 56.7,-69.83 102.07,-84.16 45.36,-14.32 103.86,-21.49 175.48,-21.49 71.63,0 128.33,6.57 170.12,19.7 41.78,13.13 71.03,28.06 87.74,44.77 9.55,7.16 37.01,38.2 82.37,93.11 503.78,685.24 840.43,1137.68 1009.95,1357.34l0 -1210.5c0,-90.73 11.34,-156.98 34.02,-198.77zm2250.88 932.95l630.32 0c128.93,4.77 207.72,38.2 236.37,100.28 23.88,45.36 35.82,112.21 35.82,200.55l0 787.9c0,76.4 -33.43,149.23 -100.28,218.47 -200.56,207.71 -501.39,311.57 -902.5,311.57 -355.75,0 -664.94,-134.3 -927.58,-402.9 -262.63,-268.6 -393.95,-592.71 -393.95,-972.34 0,-379.62 133.71,-696.57 401.12,-950.85 267.4,-254.28 582.56,-381.41 945.48,-381.41 281.73,0 547.94,93.11 798.64,279.34 64.46,47.75 96.7,100.88 96.7,159.37 0,58.5 -27.46,125.95 -82.38,202.35 -93.11,126.54 -177.87,189.81 -254.27,189.81 -45.37,0 -118.19,-32.83 -218.47,-98.49 -100.27,-65.65 -219.65,-98.48 -358.13,-98.48 -181.46,0 -342.62,63.86 -483.49,191.6 -140.86,127.73 -211.3,294.86 -211.3,501.39 0,206.52 71.63,382.01 214.89,526.46 143.25,144.45 305.61,216.67 487.06,216.67 131.32,0 249.5,-21.49 354.56,-64.46l0 -390.37 -282.93 0c-74.02,0 -126.54,-9.55 -157.58,-28.65 -31.04,-19.1 -51.33,-47.16 -60.88,-84.16 -9.55,-37.01 -14.33,-87.15 -14.33,-150.42 0,-63.27 5.37,-114.01 16.12,-152.21 10.74,-38.2 30.44,-64.46 59.09,-78.79 42.97,-21.49 100.28,-32.23 171.9,-32.23zm2811.37 -945.48c19.1,-35.81 51.33,-60.88 96.7,-75.21 45.36,-14.32 102.66,-21.49 171.9,-21.49 69.24,0 124.16,5.97 164.74,17.91 40.59,11.94 71.63,26.26 93.12,42.98 21.49,16.71 38.2,40.59 50.14,71.62 11.94,40.59 17.91,102.67 17.91,186.23l0 1987.66c0,54.91 -1.79,96.1 -5.38,123.56 -3.58,27.45 -14.92,59.09 -34.02,94.9 -33.42,64.47 -126.54,96.7 -279.34,96.7 -167.14,0 -265.03,-44.17 -293.68,-132.51 -14.32,-40.59 -21.48,-102.67 -21.48,-186.23l0 -727.02 -949.06 0 0 730.6c0,54.91 -1.8,96.1 -5.38,123.56 -3.58,27.45 -14.92,59.09 -34.02,94.9 -33.43,64.47 -126.54,96.7 -279.35,96.7 -167.13,0 -265.02,-44.17 -293.67,-132.51 -14.32,-40.59 -21.49,-102.67 -21.49,-186.23l0 -1987.66c0,-54.91 1.8,-96.1 5.38,-123.55 3.58,-27.46 14.92,-59.1 34.02,-94.91 33.43,-64.46 126.54,-96.7 279.35,-96.7 167.13,0 266.21,44.17 297.25,132.51 11.94,40.59 17.91,102.67 17.91,186.23l0 730.6 949.06 0 0 -734.18c0,-54.91 1.79,-96.1 5.37,-123.55 3.58,-27.46 14.92,-59.1 34.02,-94.91z"/>
   <path class="fil2" d="M11769.57 12619.19l47.27 -34.14c59.54,-35.02 101.56,-52.53 126.07,-52.53 54.28,0 112.94,49.03 175.97,147.08 38.52,61.29 57.79,110.31 57.79,147.08 0,36.77 -11.82,67.41 -35.46,91.93 -23.64,24.51 -51.22,46.4 -82.73,65.66 -31.52,19.26 -61.73,37.64 -90.62,55.15 -28.89,17.51 -87.98,40.28 -177.28,68.29 -89.3,28.02 -175.54,42.02 -258.71,42.02 -83.17,0 -167.21,-10.94 -252.13,-32.83 -84.93,-21.88 -172.47,-58.65 -262.65,-110.31 -90.17,-51.65 -171.15,-114.68 -242.94,-189.1 -71.79,-74.42 -130.89,-169.84 -177.29,-286.28 -46.4,-116.44 -69.6,-242.95 -69.6,-379.52 0,-136.58 22.76,-260.46 68.29,-371.64 45.52,-111.19 103.74,-203.12 174.66,-275.78 70.91,-72.67 151.89,-133.51 242.94,-182.54 171.6,-94.55 344.07,-141.83 517.41,-141.83 82.3,0 165.9,12.7 250.83,38.09 84.92,25.39 149.27,51.21 193.04,77.48l63.03 36.77c31.52,19.26 56.03,35.02 73.54,47.27 45.53,36.77 68.29,78.36 68.29,124.76 0,46.4 -18.38,94.99 -55.15,145.77 -68.29,94.55 -129.57,141.82 -183.85,141.82 -31.52,0 -76.17,-19.26 -133.95,-57.78 -73.54,-59.53 -171.6,-89.3 -294.16,-89.3 -113.82,0 -225.88,39.4 -336.19,118.19 -52.53,38.53 -96.3,92.8 -131.32,162.84 -35.02,70.04 -52.53,149.27 -52.53,237.7 0,88.42 17.51,167.65 52.53,237.69 35.02,70.04 79.67,125.19 133.95,165.46 106.81,77.05 217.99,115.57 333.56,115.57 54.28,0 105.49,-7.01 153.64,-21.01 48.15,-14.01 82.74,-28.02 103.75,-42.03zm1880.23 115.57l714.39 0c57.78,0 99.8,6.56 126.07,19.7 26.26,13.13 43.77,33.7 52.53,61.72 8.75,28.01 13.13,65.22 13.13,111.62 0,46.4 -4.38,83.61 -13.13,111.62 -8.76,28.02 -23.64,47.28 -44.65,57.79 -33.27,17.51 -78.8,26.26 -136.58,26.26l-945.52 0c-122.56,0 -194.35,-33.27 -215.36,-99.8 -10.51,-28.02 -15.76,-72.67 -15.76,-133.95l0 -1460.3c0,-40.28 1.31,-70.48 3.94,-90.62 2.62,-20.13 10.94,-43.33 24.95,-69.6 24.51,-47.27 92.8,-70.91 204.86,-70.91 122.57,0 195.23,32.39 218,97.18 8.75,29.76 13.13,75.29 13.13,136.57l0 1302.72zm3022.73 -1399.9l709.14 1465.56c29.77,59.53 44.65,104.18 44.65,133.95 0,63.03 -50.78,119.94 -152.33,170.71 -59.54,29.77 -106.37,44.65 -140.52,44.65 -34.14,0 -62.16,-7.87 -84.04,-23.63 -21.89,-15.76 -37.65,-32.4 -47.28,-49.91 -9.63,-17.51 -23.2,-43.77 -40.71,-78.79l-136.57 -283.65 -727.53 0 -136.57 283.65c-17.51,35.02 -31.08,60.41 -40.71,76.17 -9.63,15.76 -25.39,31.95 -47.28,48.59 -21.89,16.63 -49.9,24.95 -84.05,24.95 -34.14,0 -80.98,-14.89 -140.51,-44.65 -101.56,-49.03 -152.33,-105.06 -152.33,-168.09 0,-29.77 14.88,-74.42 44.65,-133.95l709.13 -1468.18c19.27,-40.27 48.59,-72.67 87.99,-97.18 39.4,-24.51 80.98,-36.77 124.76,-36.77 94.55,0 164.59,45.52 210.11,136.57zm-212.74 630.35l-173.34 359.82 349.31 0 -175.97 -359.82zm1895.99 887.74c-45.53,-56.03 -68.29,-106.37 -68.29,-151.02 0,-44.65 37.65,-103.75 112.94,-177.29 43.77,-42.02 90.17,-63.03 139.2,-63.03 49.03,0 117.31,43.77 204.86,131.32 24.52,29.77 59.53,58.22 105.06,85.36 45.52,27.14 87.55,40.71 126.07,40.71 162.84,0 244.26,-66.54 244.26,-199.61 0,-40.27 -22.33,-73.98 -66.98,-101.12 -44.65,-27.14 -100.24,-46.84 -166.78,-59.09 -66.53,-12.26 -138.32,-31.96 -215.36,-59.1 -77.05,-27.14 -148.84,-59.09 -215.37,-95.86 -66.54,-36.77 -122.13,-94.99 -166.78,-174.66 -44.65,-79.67 -66.98,-175.54 -66.98,-287.6 0,-154.08 57.35,-288.47 172.04,-403.16 114.68,-114.68 270.96,-172.03 468.82,-172.03 105.05,0 200.92,13.57 287.59,40.71 86.67,27.14 146.64,54.72 179.91,82.73l65.66 49.91c54.28,50.78 81.42,93.67 81.42,128.69 0,35.02 -21.01,83.17 -63.03,144.46 -59.53,87.54 -120.82,131.32 -183.85,131.32 -36.77,0 -82.3,-17.51 -136.58,-52.53 -5.25,-3.5 -15.32,-12.26 -30.2,-26.26 -14.88,-14.01 -28.45,-25.39 -40.71,-34.15 -36.77,-22.76 -83.61,-34.14 -140.52,-34.14 -56.9,0 -104.18,13.57 -141.82,40.71 -37.65,27.14 -56.47,64.78 -56.47,112.94 0,48.15 22.32,87.11 66.97,116.87 44.65,29.77 100.24,49.9 166.78,60.41 66.54,10.51 139.2,26.7 218,48.59 78.79,21.89 151.45,48.59 217.99,80.11 66.54,31.51 122.13,86.23 166.78,164.15 44.65,77.92 66.97,173.78 66.97,287.59 0,113.82 -22.76,214.06 -68.28,300.73 -45.53,86.67 -105.06,153.65 -178.6,200.92 -141.83,92.8 -293.29,139.2 -454.38,139.2 -82.29,0 -160.21,-10.06 -233.75,-30.2 -73.54,-20.14 -133.07,-45.09 -178.6,-74.85 -92.8,-56.03 -157.58,-110.31 -194.35,-162.84l-23.64 -28.89zm2366.12 0c-45.53,-56.03 -68.29,-106.37 -68.29,-151.02 0,-44.65 37.65,-103.75 112.94,-177.29 43.77,-42.02 90.17,-63.03 139.2,-63.03 49.03,0 117.31,43.77 204.86,131.32 24.52,29.77 59.53,58.22 105.06,85.36 45.52,27.14 87.55,40.71 126.07,40.71 162.84,0 244.26,-66.54 244.26,-199.61 0,-40.27 -22.33,-73.98 -66.98,-101.12 -44.65,-27.14 -100.24,-46.84 -166.78,-59.09 -66.53,-12.26 -138.32,-31.96 -215.36,-59.1 -77.05,-27.14 -148.84,-59.09 -215.37,-95.86 -66.54,-36.77 -122.13,-94.99 -166.78,-174.66 -44.65,-79.67 -66.98,-175.54 -66.98,-287.6 0,-154.08 57.35,-288.47 172.04,-403.16 114.68,-114.68 270.96,-172.03 468.82,-172.03 105.05,0 200.92,13.57 287.59,40.71 86.67,27.14 146.64,54.72 179.91,82.73l65.66 49.91c54.28,50.78 81.42,93.67 81.42,128.69 0,35.02 -21.01,83.17 -63.03,144.46 -59.53,87.54 -120.82,131.32 -183.85,131.32 -36.77,0 -82.3,-17.51 -136.58,-52.53 -5.25,-3.5 -15.32,-12.26 -30.2,-26.26 -14.88,-14.01 -28.45,-25.39 -40.71,-34.15 -36.77,-22.76 -83.61,-34.14 -140.52,-34.14 -56.9,0 -104.18,13.57 -141.82,40.71 -37.65,27.14 -56.47,64.78 -56.47,112.94 0,48.15 22.32,87.11 66.97,116.87 44.65,29.77 100.24,49.9 166.78,60.41 66.54,10.51 139.2,26.7 218,48.59 78.79,21.89 151.45,48.59 217.99,80.11 66.54,31.51 122.13,86.23 166.78,164.15 44.65,77.92 66.97,173.78 66.97,287.59 0,113.82 -22.76,214.06 -68.28,300.73 -45.53,86.67 -105.06,153.65 -178.6,200.92 -141.83,92.8 -293.29,139.2 -454.38,139.2 -82.29,0 -160.21,-10.06 -233.75,-30.2 -73.54,-20.14 -133.07,-45.09 -178.6,-74.85 -92.8,-56.03 -157.58,-110.31 -194.35,-162.84l-23.64 -28.89zm2802.11 -194.36l808.94 0c40.27,0 70.48,1.31 90.61,3.94 20.14,2.63 43.34,10.94 69.6,24.95 47.28,24.51 70.92,92.8 70.92,204.86 0,122.57 -32.4,194.36 -97.18,215.37 -29.77,10.51 -75.29,15.76 -136.58,15.76l-1040.07 0c-122.56,0 -194.35,-33.27 -215.36,-99.8 -10.51,-28.02 -15.76,-72.67 -15.76,-133.95l0 -1460.3c0,-89.3 16.63,-150.15 49.9,-182.54 33.27,-32.39 96.3,-48.59 189.1,-48.59l1034.82 0c40.27,0 70.48,1.31 90.61,3.94 20.14,2.63 43.34,10.94 69.6,24.95 47.28,24.51 70.92,92.8 70.92,204.86 0,122.57 -32.4,194.36 -97.18,215.37 -29.77,10.51 -75.29,15.76 -136.58,15.76l-806.31 0 0 265.27 520.03 0c40.27,0 70.48,1.31 90.61,3.94 20.14,2.63 43.34,10.94 69.61,24.95 47.27,24.51 70.91,92.8 70.91,204.86 0,122.57 -33.27,194.36 -99.81,215.37 -29.76,10.51 -75.29,15.76 -136.57,15.76l-514.78 0 0 265.27zm2074.59 194.36c-45.53,-56.03 -68.29,-106.37 -68.29,-151.02 0,-44.65 37.65,-103.75 112.94,-177.29 43.77,-42.02 90.17,-63.03 139.2,-63.03 49.03,0 117.31,43.77 204.86,131.32 24.52,29.77 59.53,58.22 105.06,85.36 45.52,27.14 87.55,40.71 126.07,40.71 162.84,0 244.26,-66.54 244.26,-199.61 0,-40.27 -22.33,-73.98 -66.98,-101.12 -44.65,-27.14 -100.24,-46.84 -166.78,-59.09 -66.53,-12.26 -138.32,-31.96 -215.36,-59.1 -77.05,-27.14 -148.84,-59.09 -215.37,-95.86 -66.54,-36.77 -122.13,-94.99 -166.78,-174.66 -44.65,-79.67 -66.98,-175.54 -66.98,-287.6 0,-154.08 57.35,-288.47 172.04,-403.16 114.68,-114.68 270.96,-172.03 468.82,-172.03 105.05,0 200.92,13.57 287.59,40.71 86.67,27.14 146.64,54.72 179.91,82.73l65.66 49.91c54.28,50.78 81.42,93.67 81.42,128.69 0,35.02 -21.01,83.17 -63.03,144.46 -59.53,87.54 -120.82,131.32 -183.85,131.32 -36.77,0 -82.3,-17.51 -136.58,-52.53 -5.25,-3.5 -15.32,-12.26 -30.2,-26.26 -14.88,-14.01 -28.45,-25.39 -40.71,-34.15 -36.77,-22.76 -83.61,-34.14 -140.52,-34.14 -56.9,0 -104.18,13.57 -141.82,40.71 -37.65,27.14 -56.47,64.78 -56.47,112.94 0,48.15 22.32,87.11 66.97,116.87 44.65,29.77 100.24,49.9 166.78,60.41 66.54,10.51 139.2,26.7 218,48.59 78.79,21.89 151.45,48.59 217.99,80.11 66.54,31.51 122.13,86.23 166.78,164.15 44.65,77.92 66.97,173.78 66.97,287.59 0,113.82 -22.76,214.06 -68.28,300.73 -45.53,86.67 -105.06,153.65 -178.6,200.92 -141.83,92.8 -293.29,139.2 -454.38,139.2 -82.29,0 -160.21,-10.06 -233.75,-30.2 -73.54,-20.14 -133.07,-45.09 -178.6,-74.85 -92.8,-56.03 -157.58,-110.31 -194.35,-162.84l-23.64 -28.89z"/>
  </g>
  <g id="_1340815154880">
   <g>
    <path class="fil3" d="M6416.8 12550.04c0,-628.85 -95.09,-1389.58 274.68,-1770.5 480.08,-494.54 908.48,-356.48 1893.22,-356.48 0,780.45 -66.08,1151.12 -704.9,1749.32 -372.3,348.63 -1463,686.41 -1463,377.66zm-981.67 -858.97l0 2290.59c0,644.6 331.61,1022.6 981.67,1022.6l0 -1390.73c1077.91,0 1788.42,-322.07 2445.15,-1072.55 1049.56,-1199.43 674.59,-3099.61 377.2,-3099.61l-1840.66 0c-1207.83,0 -1963.36,988.31 -1963.36,2249.7z"/>
    <path class="fil4" d="M3553.57 10627.57c0,1229.29 723.01,2173.18 1717.93,2699.64 0,-259.03 -2.13,-518.94 0.69,-777.85 7.75,-712.52 -105.92,-174.8 -546.69,-1048.55 -377.91,-749.11 -209.34,-1566.6 282.55,-2200.18 161.01,-207.38 122.82,-153.97 357.2,-338.17 683.08,-536.81 1787.57,-506.93 2489.96,63.09 269.15,218.42 73.44,217.33 565.18,211.99 258.91,-2.82 518.84,-0.69 777.86,-0.69 -107.75,-462.46 -830.52,-1071.76 -1280.65,-1296.28 -985.87,-491.72 -2040.47,-411.12 -2997.36,167.85 -768.66,465.08 -1366.67,1518.84 -1366.67,2519.15z"/>
   </g>
   <path class="fil3" d="M5593.9 5991.86l-1674.43 182.89 -957.27 1384.06 -957.96 1384.56 388.37 652.26c-49.57,52 -60.78,132.14 -22.27,196.8 36.73,61.7 107.82,90.38 174.14,76.42l4.1 15.13 51.37 198.42 197.19 -117.41 -149.96 -139.71 -11.35 -10.82c43.87,-51.66 52.54,-127.82 15.8,-189.51 -38.5,-64.67 -114.29,-93 -183.63,-74.21l-367.9 -617.9 1299.37 -141.55 214.24 359.81c247.82,-571.68 670.33,-1071.01 1238.72,-1409.43 569.11,-338.86 1209.44,-472.36 1830.15,-417.8l-214.24 -359.81 798.58 -1154.15 -1673.02 181.95z"/>
  </g>
 </g>
</svg>
