<svg height="512" viewBox="0 0 50 58" width="512" xmlns="http://www.w3.org/2000/svg"><g id="Page-1" fill="none" fill-rule="evenodd"><g id="016---Phone-Book"><path id="Path" d="m8 0v58h-4c-2.209139 0-4-1.790861-4-4v-50c0-2.209139 1.790861-4 4-4z" fill="#f29c1f"/><path id="Path" d="m46 2v54c-.0032948 1.1032019-.8967981 1.9967052-2 2h-36v-58h36c1.1032019.0032948 1.9967052.89679813 2 2z" fill="#f0c419"/><path id="Path" d="m46 5h1c1.6568542 0 3 1.34314575 3 3v4c0 1.6568542-1.3431458 3-3 3h-1z" fill="#c03a2b"/><path id="Path" d="m46 15h1c1.6568542 0 3 1.3431458 3 3v4c0 1.6568542-1.3431458 3-3 3h-1z" fill="#e64c3c"/><path id="Path" d="m46 25h1c1.6568542 0 3 1.3431458 3 3v4c0 1.6568542-1.3431458 3-3 3h-1z" fill="#c03a2b"/><path id="Path" d="m46 35h1c1.6568542 0 3 1.3431458 3 3v4c0 1.6568542-1.3431458 3-3 3h-1z" fill="#e64c3c"/><rect id="Rectangle" fill="#ecf0f1" height="28" rx="2" width="28" x="13" y="5"/><path id="Path" d="m36 39h-18c-.5522847 0-1-.4477153-1-1s.4477153-1 1-1h18c.5522847 0 1 .4477153 1 1s-.4477153 1-1 1z" fill="#35495e"/><path id="Path" d="m32 43h-10c-.5522847 0-1-.4477153-1-1s.4477153-1 1-1h10c.5522847 0 1 .4477153 1 1s-.4477153 1-1 1z" fill="#35495e"/><path id="Path" d="m36.628 25.84-2.328 2.329c-2.323 2.322-6.892-.5-11.438-5.041s-7.375-9.11-5.044-11.431l2.322-2.329c.4707294-.4809841 1.241614-.49126256 1.725-.023l3.412 3.409c.22776.2300798.3541861.5416016.3511816.8653335-.0030044.3237318-.1351906.6328535-.3671816.8586665l-1.826 1.822c-.2903127.2827621-.3294681.7356028-.092 1.064.7431895 1.0052211 1.5523024 1.9599877 2.422 2.858.8998659.8650033 1.8523494 1.6735456 2.852 2.421.3291508.2373159.782376.1982008 1.066-.092l1.824-1.823c.4707294-.4809841 1.241614-.4912626 1.725-.023l3.412 3.409c.2283786.2301603.3551968.5421145.3521912.866339-.0030055.3242245-.135585.633774-.3681912.859661z" fill="#4fba6f"/><g fill="#e57e25"><path id="Path" d="m4 7c-.55228475 0-1-.44771525-1-1v-2c0-.55228475.44771525-1 1-1s1 .44771525 1 1v2c0 .55228475-.44771525 1-1 1z"/><path id="Path" d="m4 49c-.55228475 0-1-.4477153-1-1v-38c0-.55228475.44771525-1 1-1s1 .44771525 1 1v38c0 .5522847-.44771525 1-1 1z"/><path id="Path" d="m4 55c-.55228475 0-1-.4477153-1-1v-2c0-.5522847.44771525-1 1-1s1 .4477153 1 1v2c0 .5522847-.44771525 1-1 1z"/></g></g></g></svg>